<svg xmlns="http://www.w3.org/2000/svg" xmlns:xlink="http://www.w3.org/1999/xlink" viewBox="0,0,256,256" width="100px" height="100px" fill-rule="nonzero"><g transform="translate(24.32,24.32) scale(0.81,0.81)"><g fill="#ffffff" fill-rule="nonzero" stroke="none" stroke-width="1" stroke-linecap="butt" stroke-linejoin="miter" stroke-miterlimit="10" stroke-dasharray="" stroke-dashoffset="0" font-family="none" font-weight="none" font-size="none" text-anchor="none" style="mix-blend-mode: normal"><g transform="scale(5.12,5.12)"><path d="M45.27344,2.32422c-0.1875,-0.20703 -0.45703,-0.32422 -0.73828,-0.32422h-39.07031c-0.28125,0 -0.55078,0.11719 -0.73828,0.32422c-0.19141,0.20703 -0.28516,0.48438 -0.25781,0.76563l3.51953,39.42578c0.03516,0.41406 0.32422,0.75781 0.72266,0.875l16.01172,4.57031c0.08594,0.02734 0.17969,0.03906 0.27344,0.03906c0.09375,0 0.18359,-0.01172 0.27344,-0.03906l16.02344,-4.57031c0.39844,-0.11719 0.68359,-0.46094 0.72266,-0.875l3.51563,-39.42578c0.02734,-0.28125 -0.06641,-0.55859 -0.25781,-0.76562zM36.84766,15.91797h-18.8125l0.44922,5.08984h17.91016l-1.34375,15.04297l-10.05859,3.03906l-0.09766,-0.03125l-9.94141,-3.01172l-0.54297,-6.12891h4.87109l0.21094,2.37891l5.55859,1.16406l5.45703,-1.16406l0.58203,-6.4375h-17.04297l-1.32422,-14.80469h24.55859z"></path></g></g><g fill="#ffffff" fill-rule="nonzero" stroke="none" stroke-width="1" stroke-linecap="butt" stroke-linejoin="miter" stroke-miterlimit="10" stroke-dasharray="" stroke-dashoffset="0" font-family="none" font-weight="none" font-size="none" text-anchor="none" style="mix-blend-mode: normal"><g><path d="M81.12,251.48v29.12h-6v-12.48h-11.7v12.48h-6v-29.12h6v11.8h11.7v-11.8zM107.7,251.48v4.86h-8.92v24.26h-6v-24.26h-8.8v-4.86zM111.12,251.48h7.84l7.48,21.12l7.44,-21.12h7.88v29.12h-6.02v-7.96l0.6,-13.74l-7.86,21.7h-4.12l-7.84,-21.68l0.6,13.72v7.96h-6zM153,251.48v24.3h12.74v4.82h-18.74v-29.12zM184.22,267.42l-4.6,-1.14l1.68,-14.8h16.32v4.82h-11.58l-0.72,6.26c1.37333,-0.73333 2.83333,-1.1 4.38,-1.1v0c2.77333,0 4.94667,0.86 6.52,2.58c1.57333,1.72 2.36,4.12667 2.36,7.22v0c0,1.88 -0.39667,3.56333 -1.19,5.05c-0.79333,1.48667 -1.93,2.64 -3.41,3.46c-1.48,0.82 -3.22667,1.23 -5.24,1.23v0c-1.76,0 -3.39333,-0.35667 -4.9,-1.07c-1.50667,-0.71333 -2.69667,-1.71667 -3.57,-3.01c-0.87333,-1.29333 -1.33667,-2.76667 -1.39,-4.42v0h5.72c0.12,1.21333 0.54333,2.15667 1.27,2.83c0.72667,0.67333 1.67667,1.01 2.85,1.01v0c1.30667,0 2.31333,-0.47 3.02,-1.41c0.70667,-0.94 1.06,-2.27 1.06,-3.99v0c0,-1.65333 -0.40667,-2.92 -1.22,-3.8c-0.81333,-0.88 -1.96667,-1.32 -3.46,-1.32v0c-1.37333,0 -2.48667,0.36 -3.34,1.08v0z"></path></g></g></g></svg>