<svg xmlns="http://www.w3.org/2000/svg" xmlns:xlink="http://www.w3.org/1999/xlink" viewBox="0,0,256,256" width="100px" height="100px" fill-rule="evenodd"><g transform="translate(11.52,11.52) scale(0.91,0.91)"><g fill="#ffffff" fill-rule="evenodd" stroke="none" stroke-width="1" stroke-linecap="butt" stroke-linejoin="miter" stroke-miterlimit="10" stroke-dasharray="" stroke-dashoffset="0" font-family="none" font-weight="none" font-size="none" text-anchor="none" style="mix-blend-mode: normal"><g transform="scale(5.12,5.12)"><path d="M42,6l-3,34l-14,4l-14,-4l-3,-34zM16.80078,28h4l0.09766,2.5l4.10156,1.39844l4.10156,-1.39844l0.29688,-4.5h-8.79687l-0.20312,-4h9.20313l0.29688,-4h-13.79687l-0.30078,-4h18.30078l-0.5,8l-0.70312,11.5l-7.89844,2.60156l-7.89844,-2.60156z"></path></g></g><g fill="#ffffff" fill-rule="nonzero" stroke="none" stroke-width="1" stroke-linecap="butt" stroke-linejoin="miter" stroke-miterlimit="10" stroke-dasharray="" stroke-dashoffset="0" font-family="none" font-weight="none" font-size="none" text-anchor="none" style="mix-blend-mode: normal"><g><path d="M94.88,256.2h3.86c-0.36,3.08 -1.49667,5.45667 -3.41,7.13c-1.91333,1.67333 -4.45667,2.51 -7.63,2.51v0c-3.44,0 -6.19667,-1.23333 -8.27,-3.7c-2.07333,-2.46667 -3.11,-5.76667 -3.11,-9.9v0v-2.8c0,-2.70667 0.48333,-5.08667 1.45,-7.14c0.96667,-2.05333 2.33667,-3.63 4.11,-4.73c1.77333,-1.1 3.82667,-1.65 6.16,-1.65v0c3.09333,0 5.57333,0.86333 7.44,2.59c1.86667,1.72667 2.95333,4.11667 3.26,7.17v0h-3.86c-0.33333,-2.32 -1.05667,-4 -2.17,-5.04c-1.11333,-1.04 -2.67,-1.56 -4.67,-1.56v0c-2.45333,0 -4.37667,0.90667 -5.77,2.72c-1.39333,1.81333 -2.09,4.39333 -2.09,7.74v0v2.82c0,3.16 0.66,5.67333 1.98,7.54c1.32,1.86667 3.16667,2.8 5.54,2.8v0c2.13333,0 3.77,-0.48333 4.91,-1.45c1.14,-0.96667 1.89667,-2.65 2.27,-5.05zM112.56,252.46v0c-3.29333,-0.94667 -5.69,-2.11 -7.19,-3.49c-1.5,-1.38 -2.25,-3.08333 -2.25,-5.11v0c0,-2.29333 0.91667,-4.19 2.75,-5.69c1.83333,-1.5 4.21667,-2.25 7.15,-2.25v0c2,0 3.78333,0.38667 5.35,1.16c1.56667,0.77333 2.78,1.84 3.64,3.2c0.86,1.36 1.29,2.84667 1.29,4.46v0h-3.86c0,-1.76 -0.56,-3.14333 -1.68,-4.15c-1.12,-1.00667 -2.7,-1.51 -4.74,-1.51v0c-1.89333,0 -3.37,0.41667 -4.43,1.25c-1.06,0.83333 -1.59,1.99 -1.59,3.47v0c0,1.18667 0.50333,2.19 1.51,3.01c1.00667,0.82 2.72,1.57 5.14,2.25c2.42,0.68 4.31333,1.43 5.68,2.25c1.36667,0.82 2.38,1.77667 3.04,2.87c0.66,1.09333 0.99,2.38 0.99,3.86v0c0,2.36 -0.92,4.25 -2.76,5.67c-1.84,1.42 -4.3,2.13 -7.38,2.13v0c-2,0 -3.86667,-0.38333 -5.6,-1.15c-1.73333,-0.76667 -3.07,-1.81667 -4.01,-3.15c-0.94,-1.33333 -1.41,-2.84667 -1.41,-4.54v0h3.86c0,1.76 0.65,3.15 1.95,4.17c1.3,1.02 3.03667,1.53 5.21,1.53v0c2.02667,0 3.58,-0.41333 4.66,-1.24c1.08,-0.82667 1.62,-1.95333 1.62,-3.38c0,-1.42667 -0.5,-2.53 -1.5,-3.31c-1,-0.78 -2.81333,-1.55 -5.44,-2.31zM136.86,252.46v0c-3.29333,-0.94667 -5.69,-2.11 -7.19,-3.49c-1.5,-1.38 -2.25,-3.08333 -2.25,-5.11v0c0,-2.29333 0.91667,-4.19 2.75,-5.69c1.83333,-1.5 4.21667,-2.25 7.15,-2.25v0c2,0 3.78333,0.38667 5.35,1.16c1.56667,0.77333 2.78,1.84 3.64,3.2c0.86,1.36 1.29,2.84667 1.29,4.46v0h-3.86c0,-1.76 -0.56,-3.14333 -1.68,-4.15c-1.12,-1.00667 -2.7,-1.51 -4.74,-1.51v0c-1.89333,0 -3.37,0.41667 -4.43,1.25c-1.06,0.83333 -1.59,1.99 -1.59,3.47v0c0,1.18667 0.50333,2.19 1.51,3.01c1.00667,0.82 2.72,1.57 5.14,2.25c2.42,0.68 4.31333,1.43 5.68,2.25c1.36667,0.82 2.38,1.77667 3.04,2.87c0.66,1.09333 0.99,2.38 0.99,3.86v0c0,2.36 -0.92,4.25 -2.76,5.67c-1.84,1.42 -4.3,2.13 -7.38,2.13v0c-2,0 -3.86667,-0.38333 -5.6,-1.15c-1.73333,-0.76667 -3.07,-1.81667 -4.01,-3.15c-0.94,-1.33333 -1.41,-2.84667 -1.41,-4.54v0h3.86c0,1.76 0.65,3.15 1.95,4.17c1.3,1.02 3.03667,1.53 5.21,1.53v0c2.02667,0 3.58,-0.41333 4.66,-1.24c1.08,-0.82667 1.62,-1.95333 1.62,-3.38c0,-1.42667 -0.5,-2.53 -1.5,-3.31c-1,-0.78 -2.81333,-1.55 -5.44,-2.31zM167.14,252.1v-3.02h2.78c1.74667,-0.02667 3.12,-0.48667 4.12,-1.38c1,-0.89333 1.5,-2.1 1.5,-3.62v0c0,-3.41333 -1.7,-5.12 -5.1,-5.12v0c-1.6,0 -2.87667,0.45667 -3.83,1.37c-0.95333,0.91333 -1.43,2.12333 -1.43,3.63v0h-3.7c0,-2.30667 0.84333,-4.22333 2.53,-5.75c1.68667,-1.52667 3.83,-2.29 6.43,-2.29v0c2.74667,0 4.9,0.72667 6.46,2.18c1.56,1.45333 2.34,3.47333 2.34,6.06v0c0,1.26667 -0.41,2.49333 -1.23,3.68c-0.82,1.18667 -1.93667,2.07333 -3.35,2.66v0c1.6,0.50667 2.83667,1.34667 3.71,2.52c0.87333,1.17333 1.31,2.60667 1.31,4.3v0c0,2.61333 -0.85333,4.68667 -2.56,6.22c-1.70667,1.53333 -3.92667,2.3 -6.66,2.3c-2.73333,0 -4.95667,-0.74 -6.67,-2.22c-1.71333,-1.48 -2.57,-3.43333 -2.57,-5.86v0h3.72c0,1.53333 0.5,2.76 1.5,3.68c1,0.92 2.34,1.38 4.02,1.38v0c1.78667,0 3.15333,-0.46667 4.1,-1.4c0.94667,-0.93333 1.42,-2.27333 1.42,-4.02v0c0,-1.69333 -0.52,-2.99333 -1.56,-3.9c-1.04,-0.90667 -2.54,-1.37333 -4.5,-1.4v0z"></path></g></g></g></svg>