<svg xmlns="http://www.w3.org/2000/svg" xmlns:xlink="http://www.w3.org/1999/xlink" viewBox="0,0,256,256" width="100px" height="100px" fill-rule="nonzero"><g transform="translate(25.6,25.6) scale(0.8,0.8)"><g fill="#ffffff" fill-rule="nonzero" stroke="none" stroke-width="1" stroke-linecap="butt" stroke-linejoin="miter" stroke-miterlimit="10" stroke-dasharray="" stroke-dashoffset="0" font-family="none" font-weight="none" font-size="none" text-anchor="none" style="mix-blend-mode: normal"><g transform="translate(-10.66667,-37.33333) scale(10.66667,10.66667)"><path d="M9.5,1c-2.47344,0 -4.5,2.02656 -4.5,4.5c0,1.44265 0.73344,2.67483 1.79883,3.5c-1.06538,0.82517 -1.79883,2.05735 -1.79883,3.5c0,1.44265 0.73344,2.67483 1.79883,3.5c-1.06538,0.82517 -1.79883,2.05735 -1.79883,3.5c0,2.47344 2.02656,4.5 4.5,4.5c2.47344,0 4.5,-2.02656 4.5,-4.5v-3.5v-6h2.5c2.47344,0 4.5,-2.02656 4.5,-4.5c0,-2.47344 -2.02656,-4.5 -4.5,-4.5h-3.5zM9.5,3h2.5v5h-2.5c-1.39256,0 -2.5,-1.10744 -2.5,-2.5c0,-1.39256 1.10744,-2.5 2.5,-2.5zM14,3h2.5c1.39256,0 2.5,1.10744 2.5,2.5c0,1.39256 -1.10744,2.5 -2.5,2.5h-2.5zM9.5,10h2.5v5h-2.5c-1.39256,0 -2.5,-1.10744 -2.5,-2.5c0,-1.39256 1.10744,-2.5 2.5,-2.5zM17,10c-1.65685,0 -3,1.34315 -3,3c0,1.65685 1.34315,3 3,3c1.65685,0 3,-1.34315 3,-3c0,-1.65685 -1.34315,-3 -3,-3zM9.5,17h2.5v2.5c0,1.39256 -1.10744,2.5 -2.5,2.5c-1.39256,0 -2.5,-1.10744 -2.5,-2.5c0,-1.39256 1.10744,-2.5 2.5,-2.5z"></path></g></g><g fill="#ffffff" fill-rule="nonzero" stroke="none" stroke-width="1" stroke-linecap="butt" stroke-linejoin="miter" stroke-miterlimit="10" stroke-dasharray="" stroke-dashoffset="0" font-family="none" font-weight="none" font-size="none" text-anchor="none" style="mix-blend-mode: normal"><g><path d="M93.5,243.62833v3.78h-9v9.3h-4.69v-22.75h14.81v3.8h-10.12v5.87zM102.33,233.95833v22.75h-4.69v-22.75zM124.67,244.75833v9.08c-0.84,1.00667 -2.03333,1.79 -3.58,2.35c-1.54,0.55333 -3.24667,0.83 -5.12,0.83v0c-1.97333,0 -3.7,-0.43 -5.18,-1.29c-1.48667,-0.86 -2.63333,-2.10667 -3.44,-3.74c-0.80667,-1.63333 -1.22,-3.55333 -1.24,-5.76v0v-1.55c0,-2.27333 0.38333,-4.24 1.15,-5.9c0.76667,-1.66 1.87,-2.93 3.31,-3.81c1.44,-0.88 3.13,-1.32 5.07,-1.32v0c2.7,0 4.81,0.64333 6.33,1.93c1.52,1.28667 2.42,3.15667 2.7,5.61v0h-4.56c-0.20667,-1.3 -0.66667,-2.25 -1.38,-2.85c-0.71333,-0.60667 -1.69667,-0.91 -2.95,-0.91v0c-1.59333,0 -2.80667,0.6 -3.64,1.8c-0.83333,1.19333 -1.25667,2.97333 -1.27,5.34v0v1.45c0,2.38667 0.45333,4.19 1.36,5.41c0.90667,1.22 2.23667,1.83 3.99,1.83v0c1.76,0 3.01333,-0.37667 3.76,-1.13v0v-3.92h-4.26v-3.45zM128.47,233.95833h6.12l5.85,16.5l5.81,-16.5h6.16v22.75h-4.71v-6.22l0.47,-10.73l-6.14,16.95h-3.22l-6.12,-16.94l0.47,10.72v6.22h-4.69zM171.2,256.70833l-1.58,-4.69h-8.21l-1.57,4.69h-4.98l8.47,-22.75h4.34l8.52,22.75zM165.5,239.70833l-2.83,8.52h5.69z"></path></g></g></g></svg>