<svg xmlns="http://www.w3.org/2000/svg" xmlns:xlink="http://www.w3.org/1999/xlink" viewBox="0,0,256,256" width="100px" height="100px" fill-rule="nonzero"><g fill="#ffffff" fill-rule="nonzero" stroke="none" stroke-width="1" stroke-linecap="butt" stroke-linejoin="miter" stroke-miterlimit="10" stroke-dasharray="" stroke-dashoffset="0" font-family="none" font-weight="none" font-size="none" text-anchor="none" style="mix-blend-mode: normal"><g transform="scale(8,8)"><path d="M5,5v22h22v-22zM7,7h18v18h-18zM16.87109,10.36133c-0.632,0 -1.00195,0.33775 -1.00195,0.96875c0,0.643 0.37095,1.00195 1.00195,1.00195c0.642,0 1.01172,-0.35995 1.01172,-1.00195c0,-0.632 -0.36972,-0.96875 -1.01172,-0.96875zM19.98438,11.41602c-0.12,1.208 -0.51147,1.69764 -1.48047,1.80664v0.99219c0.893,0 0.85938,-0.03458 0.85938,0.10742v2.91797c0,1.252 0.50208,1.75977 1.83008,1.75977c0.631,0 1.32764,-0.17992 1.80664,-0.41992l-0.30469,-0.98242c-1.785,0.675 -1.69531,-0.54351 -1.69531,-0.72852v-2.65625h1.69531v-1.10937h-1.69531v-1.6875zM11.72852,13.21484c-1.15749,0.00506 -2.55469,0.46727 -2.55469,2.16601c0,0.816 0.41498,1.39302 0.95898,1.66602c-0.686,0.63 -1.01367,0.92389 -1.01367,1.33789c0,0.305 0.13123,0.57528 0.49023,0.73828c-0.381,0.36 -0.60937,0.63377 -0.60937,1.13477c0,0.871 0.77239,1.38281 2.77539,1.38281c1.938,0 3.06055,-0.71919 3.06055,-1.99219c0,-1.611 -1.23044,-1.54547 -4.14844,-1.73047l0.36914,-0.58984c0.74,0.207 3.24414,0.27339 3.24414,-1.84961c0,-0.512 -0.20706,-0.87109 -0.41406,-1.12109l1.02344,-0.07617v-0.94922h-2.16601c-0.27225,-0.07075 -0.6298,-0.11888 -1.01562,-0.11719zM15.55469,13.22461l-0.12109,0.9043c0.686,0.239 0.74023,0.20459 0.74023,0.43359v3.27734c0,0.24 -0.01123,0.19692 -0.74023,0.29492v0.86523h3.16797v-0.86523l-0.56641,-0.07617c-0.163,-0.022 -0.17383,-0.04475 -0.17383,-0.21875v-4.61523zM11.82031,14.32227c1.36,0 1.3928,1.93945 -0.0332,1.93945c-1.437,0 -1.3718,-1.93945 0.0332,-1.93945zM10.59961,19.41797c2.123,0.153 2.58008,0.09844 2.58008,0.52344c0,0.882 -2.86328,0.88145 -2.86328,0.06445c0,-0.218 0.1412,-0.40289 0.2832,-0.58789z"></path></g></g></svg>