<svg xmlns="http://www.w3.org/2000/svg" xmlns:xlink="http://www.w3.org/1999/xlink" viewBox="0,0,256,256" width="100px" height="100px" fill-rule="nonzero"><g transform="translate(7.68,7.68) scale(0.94,0.94)"><g fill="#ffffff" fill-rule="nonzero" stroke="none" stroke-width="1" stroke-linecap="butt" stroke-linejoin="miter" stroke-miterlimit="10" stroke-dasharray="" stroke-dashoffset="0" font-family="none" font-weight="none" font-size="none" text-anchor="none" style="mix-blend-mode: normal"><g transform="translate(0,-25.6) scale(5.12,5.12)"><path d="M5,4c-0.55226,0.00006 -0.99994,0.44774 -1,1v40c0.00006,0.55226 0.44774,0.99994 1,1h40c0.55226,-0.00006 0.99994,-0.44774 1,-1v-40c-0.00006,-0.55226 -0.44774,-0.99994 -1,-1zM6,6h38v38h-38zM15,23v3.44531h5v15.55469h4v-15.55469h5v-3.44531zM36.69141,23.00977c-3.11462,-0.0124 -6.67383,0.93145 -6.67383,5.31445c0,5.73 7.7207,5.73141 7.7207,8.31641c0,0.245 0.10391,2.02539 -2.62109,2.02539c-2.725,0 -4.99609,-1.71289 -4.99609,-1.71289v4.1582c0,0 11.88086,3.84273 11.88086,-4.82227c-0.001,-5.625 -7.79297,-5.34367 -7.79297,-8.13867c0,-1.083 0.76939,-2.0957 2.90039,-2.0957c2.131,0 4.01758,1.25781 4.01758,1.25781l0.14063,-3.70508c0,0 -2.15369,-0.58801 -4.57617,-0.59766z"></path></g></g><g fill="#ffffff" fill-rule="nonzero" stroke="none" stroke-width="1" stroke-linecap="butt" stroke-linejoin="miter" stroke-miterlimit="10" stroke-dasharray="" stroke-dashoffset="0" font-family="none" font-weight="none" font-size="none" text-anchor="none" style="mix-blend-mode: normal"><g><path d="M90.58,226.33v2.43h-4.46v12.13h-3v-12.13h-4.4v-2.43zM93.31,230.07l2.01,6.73l2,-6.73h3.1l-4.35,12.5l-0.24,0.57c-0.64667,1.41333 -1.71333,2.12 -3.2,2.12v0c-0.42,0 -0.84667,-0.06333 -1.28,-0.19v0v-2.19l0.44,0.01c0.54667,0 0.95667,-0.08333 1.23,-0.25c0.26667,-0.16667 0.47667,-0.44333 0.63,-0.83v0l0.34,-0.89l-3.79,-10.85zM111.3,235.43v0.15c0,1.66667 -0.38,3.00333 -1.14,4.01c-0.75333,1 -1.77333,1.5 -3.06,1.5v0c-1.09333,0 -1.97667,-0.38 -2.65,-1.14v0v5.1h-2.89v-14.98h2.68l0.1,1.06c0.7,-0.84 1.61333,-1.26 2.74,-1.26v0c1.33333,0 2.37,0.49333 3.11,1.48c0.74,0.98667 1.11,2.34667 1.11,4.08zM108.41,235.37v0c0,-1.00667 -0.18,-1.78333 -0.54,-2.33c-0.35333,-0.54667 -0.87,-0.82 -1.55,-0.82v0c-0.90667,0 -1.53,0.34667 -1.87,1.04v0v4.43c0.35333,0.71333 0.98333,1.07 1.89,1.07v0c1.38,0 2.07,-1.13 2.07,-3.39zM118.07,241.09v0c-1.58667,0 -2.87667,-0.48667 -3.87,-1.46c-1,-0.97333 -1.5,-2.27 -1.5,-3.89v0v-0.28c0,-1.08667 0.21,-2.06 0.63,-2.92c0.42,-0.85333 1.01333,-1.51333 1.78,-1.98c0.77333,-0.46 1.65333,-0.69 2.64,-0.69v0c1.48,0 2.64333,0.46667 3.49,1.4c0.85333,0.93333 1.28,2.25667 1.28,3.97v0v1.18h-6.89c0.09333,0.70667 0.37333,1.27333 0.84,1.7c0.47333,0.42667 1.07,0.64 1.79,0.64v0c1.11333,0 1.98333,-0.40333 2.61,-1.21v0l1.42,1.59c-0.43333,0.61333 -1.02,1.09 -1.76,1.43c-0.74,0.34667 -1.56,0.52 -2.46,0.52zM117.74,232.21v0c-0.57333,0 -1.04,0.19333 -1.4,0.58c-0.35333,0.38667 -0.58,0.94 -0.68,1.66v0h4.02v-0.23c-0.01333,-0.64 -0.18667,-1.13333 -0.52,-1.48c-0.33333,-0.35333 -0.80667,-0.53 -1.42,-0.53zM131.9,237.07v0c0,-0.56667 -0.2,-1 -0.6,-1.3c-0.4,-0.30667 -1.12,-0.63 -2.16,-0.97c-1.04,-0.33333 -1.86333,-0.66333 -2.47,-0.99v0c-1.65333,-0.89333 -2.48,-2.09667 -2.48,-3.61v0c0,-0.78667 0.22,-1.48667 0.66,-2.1c0.44667,-0.62 1.08333,-1.10333 1.91,-1.45c0.83333,-0.34667 1.76667,-0.52 2.8,-0.52v0c1.04,0 1.96667,0.19 2.78,0.57c0.81333,0.37333 1.44333,0.90333 1.89,1.59c0.45333,0.68667 0.68,1.46667 0.68,2.34v0h-3c0,-0.66667 -0.21,-1.18333 -0.63,-1.55c-0.42,-0.37333 -1.01,-0.56 -1.77,-0.56v0c-0.73333,0 -1.30333,0.15667 -1.71,0.47c-0.40667,0.30667 -0.61,0.71333 -0.61,1.22v0c0,0.47333 0.23667,0.87 0.71,1.19c0.48,0.32 1.18333,0.62 2.11,0.9v0c1.70667,0.51333 2.95,1.15 3.73,1.91c0.78,0.76 1.17,1.70667 1.17,2.84v0c0,1.26 -0.47667,2.25 -1.43,2.97c-0.95333,0.71333 -2.23667,1.07 -3.85,1.07v0c-1.12,0 -2.14,-0.20333 -3.06,-0.61c-0.92,-0.41333 -1.62333,-0.97667 -2.11,-1.69c-0.48,-0.71333 -0.72,-1.54 -0.72,-2.48v0h3.01c0,1.60667 0.96,2.41 2.88,2.41v0c0.71333,0 1.27,-0.14333 1.67,-0.43c0.4,-0.29333 0.6,-0.7 0.6,-1.22zM141.25,238.76v0c0.53333,0 0.96667,-0.14667 1.3,-0.44c0.33333,-0.29333 0.50667,-0.68333 0.52,-1.17v0h2.71c-0.00667,0.73333 -0.20667,1.40333 -0.6,2.01c-0.39333,0.61333 -0.93333,1.09 -1.62,1.43c-0.68,0.33333 -1.43333,0.5 -2.26,0.5v0c-1.54667,0 -2.76667,-0.49 -3.66,-1.47c-0.89333,-0.98667 -1.34,-2.34667 -1.34,-4.08v0v-0.19c0,-1.66667 0.44333,-2.99667 1.33,-3.99c0.88667,-0.99333 2.10333,-1.49 3.65,-1.49v0c1.35333,0 2.43667,0.38667 3.25,1.16c0.82,0.76667 1.23667,1.79 1.25,3.07v0h-2.71c-0.01333,-0.56 -0.18667,-1.01333 -0.52,-1.36c-0.33333,-0.35333 -0.77333,-0.53 -1.32,-0.53v0c-0.67333,0 -1.18333,0.24667 -1.53,0.74c-0.34,0.48667 -0.51,1.28 -0.51,2.38v0v0.3c0,1.11333 0.17,1.91333 0.51,2.4c0.34,0.48667 0.85667,0.73 1.55,0.73zM153.55,230l-0.04,2.78c-0.39333,-0.05333 -0.74,-0.08 -1.04,-0.08v0c-1.09333,0 -1.81,0.37 -2.15,1.11v0v7.08h-2.89v-10.82h2.73l0.08,1.29c0.58,-0.99333 1.38333,-1.49 2.41,-1.49v0c0.32,0 0.62,0.04333 0.9,0.13zM157.95,230.07v10.82h-2.9v-10.82zM154.88,227.27v0c0,-0.43333 0.14667,-0.79 0.44,-1.07c0.28667,-0.28 0.68,-0.42 1.18,-0.42v0c0.49333,0 0.88667,0.14 1.18,0.42c0.29333,0.28 0.44,0.63667 0.44,1.07v0c0,0.44 -0.14667,0.8 -0.44,1.08c-0.3,0.28 -0.69333,0.42 -1.18,0.42c-0.48667,0 -0.88,-0.14 -1.18,-0.42c-0.29333,-0.28 -0.44,-0.64 -0.44,-1.08zM170.07,235.43v0.15c0,1.66667 -0.37667,3.00333 -1.13,4.01c-0.76,1 -1.78333,1.5 -3.07,1.5v0c-1.09333,0 -1.97667,-0.38 -2.65,-1.14v0v5.1h-2.89v-14.98h2.68l0.1,1.06c0.7,-0.84 1.61333,-1.26 2.74,-1.26v0c1.33333,0 2.37,0.49333 3.11,1.48c0.74,0.98667 1.11,2.34667 1.11,4.08zM167.18,235.37v0c0,-1.00667 -0.17667,-1.78333 -0.53,-2.33c-0.36,-0.54667 -0.88,-0.82 -1.56,-0.82v0c-0.90667,0 -1.53,0.34667 -1.87,1.04v0v4.43c0.35333,0.71333 0.98333,1.07 1.89,1.07v0c1.38,0 2.07,-1.13 2.07,-3.39zM172.43,227.41h2.89v2.66h1.85v2.12h-1.85v5.4c0,0.4 0.07667,0.68667 0.23,0.86c0.15333,0.17333 0.44667,0.26 0.88,0.26v0c0.32,0 0.60333,-0.02333 0.85,-0.07v0v2.19c-0.56667,0.17333 -1.15,0.26 -1.75,0.26v0c-2.02667,0 -3.06,-1.02333 -3.1,-3.07v0v-5.83h-1.58v-2.12h1.58z"></path></g></g></g></svg>