<svg xmlns="http://www.w3.org/2000/svg" xmlns:xlink="http://www.w3.org/1999/xlink" viewBox="0,0,256,256" width="100px" height="100px" fill-rule="nonzero"><g transform="translate(32,32) scale(0.75,0.75)"><g fill="#ffffff" fill-rule="nonzero" stroke="none" stroke-width="1" stroke-linecap="butt" stroke-linejoin="miter" stroke-miterlimit="10" stroke-dasharray="" stroke-dashoffset="0" font-family="none" font-weight="none" font-size="none" text-anchor="none" style="mix-blend-mode: normal"><g transform="scale(10.66667,10.66667)"><path d="M3.33789,1.00586c-0.803,-0.046 -1.6212,0.33439 -2.0332,1.02539c-0.199,0.337 -0.30073,0.7058 -0.30273,1.0918c-0.001,0.931 0.59998,1.68767 0.95898,2.13867c0.063,0.08 0.12069,0.14938 0.17969,0.23438l0.16211,0.21484c0.162,0.211 0.34339,0.44836 0.40039,0.56836c0.02,0.056 0.04608,0.15339 0.08008,0.27539c0.157,0.565 0.45002,1.61506 0.91602,2.41406c0.187,0.323 0.45258,0.72672 0.64258,1.01172c-0.127,0.636 -0.3418,1.80753 -0.3418,2.51953c0,1.25 0.25922,2.25388 0.82422,3.17188c0.209,0.328 0.84678,1.32813 1.92578,1.32813c0.383,0 1.01941,-0.14961 1.19141,-1.09961c0.765,0.987 1.68606,2.03476 3.28906,3.00977c0.079,0.052 0.16853,0.08984 0.26953,0.08984c0.276,0 0.5,-0.224 0.5,-0.5c0,-0.167 -0.08784,-0.30744 -0.21484,-0.39844c-1.37,-1.321 -3.18016,-3.53384 -3.91016,-5.33984c-0.151,-0.375 -0.64819,-0.4318 -0.86719,-0.0918c-0.228,0.355 -0.49419,0.83445 -0.74219,1.43945c-0.181,-0.458 -0.26562,-0.97438 -0.26562,-1.60937c0,-0.466 0.26344,-1.86183 0.39844,-2.54883c0.05,-0.253 -0.00148,-0.5067 -0.14648,-0.7207c-0.246,-0.363 -0.63222,-0.93858 -0.82422,-1.26758c-0.336,-0.576 -0.5838,-1.46731 -0.7168,-1.94531c-0.064,-0.232 -0.11606,-0.40163 -0.16406,-0.51562c-0.175,-0.38 -0.4303,-0.71381 -0.6543,-1.00781l-0.12695,-0.16406c-0.063,-0.091 -0.14623,-0.19745 -0.24023,-0.31445c-0.183,-0.23 -0.52367,-0.65759 -0.51367,-0.93359l0.11133,-0.07812l0.00195,-0.00391c0.795,0 1.81908,0.56339 2.20508,0.77539c0.125,0.069 0.21858,0.11667 0.26758,0.13867l0.17383,0.07617l0.3418,0.01367c0.447,0.01 1.80563,0.03983 2.76562,0.42383c1.751,0.7 2.71912,1.40264 3.70312,2.68164c1.321,1.717 2.1683,3.72067 2.6543,5.13867c0.226,0.658 0.42302,1.40858 0.54102,1.89258c0.077,0.317 0.30538,0.56855 0.60938,0.68555c0.439,0.169 1.09423,0.44553 1.61523,0.76953c0.443,0.275 0.93792,0.63198 1.41992,1.08398c-1.095,0.271 -1.75552,0.70305 -2.10352,0.99805c-0.206,0.175 -0.22383,0.4815 -0.04883,0.6875c0.338,0.398 1.08642,1.05781 2.48242,2.00781c1.049,0.714 2.15719,2.12145 2.36719,2.43945c0.091,0.113 0.22486,0.1875 0.38086,0.1875c0.276,0 0.5,-0.224 0.5,-0.5c0,-0.104 -0.03194,-0.1993 -0.08594,-0.2793c-0.018,-0.026 -0.14917,-0.24589 -0.20117,-0.33789c-0.5,-0.883 -1.4452,-2.154 -2.4082,-3.375c0.656,-0.21 1.39278,-0.36394 1.92578,-0.46094c0.355,-0.065 0.52726,-0.47448 0.32227,-0.77148c-0.274,-0.395 -0.67473,-0.92503 -1.17773,-1.45703c-1.411,-1.492 -2.96134,-2.3385 -3.77734,-2.6875c-0.333,-1.267 -1.33469,-4.51723 -3.42969,-7.24023c-1.199,-1.559 -2.47487,-2.49131 -4.54688,-3.32031c-1.227,-0.49 -2.70238,-0.54845 -3.35938,-0.56445c-0.543,-0.298 -1.71383,-0.931 -2.92383,-1zM7.14063,5c-0.015,0 -0.36267,0.00156 -0.76367,0.10156c-0.081,0.021 -0.14678,0.0802 -0.17578,0.1582c-0.028,0.078 -0.0158,0.16442 0.0332,0.23242l1.0332,1.40625c0.047,0.064 0.10417,0.12656 0.20117,0.10156c0.079,0 0.15317,-0.03661 0.20117,-0.09961c0.327,-0.436 0.33008,-0.94189 0.33008,-0.96289c0,-0.03 -0.00462,-0.05989 -0.01562,-0.08789c-0.009,-0.024 -0.23114,-0.60013 -0.74414,-0.82812c-0.032,-0.014 -0.06561,-0.02148 -0.09961,-0.02148z"></path></g></g><g fill="#ffffff" fill-rule="nonzero" stroke="none" stroke-width="1" stroke-linecap="butt" stroke-linejoin="miter" stroke-miterlimit="10" stroke-dasharray="" stroke-dashoffset="0" font-family="none" font-weight="none" font-size="none" text-anchor="none" style="mix-blend-mode: normal"><g><path d="M61,247.15167h8.17l7.79,22l7.75,-22h8.21v30.34h-6.28v-8.29l0.63,-14.32l-8.19,22.61h-4.29l-8.17,-22.59l0.63,14.3v8.29h-6.25zM102.21,254.95167l4.18,14.02l4.17,-14.02h6.46l-9.06,26.04l-0.5,1.18c-1.34667,2.94667 -3.57,4.42 -6.67,4.42v0c-0.87333,0 -1.76333,-0.13 -2.67,-0.39v0v-4.57l0.92,0.02c1.14,0 1.99,-0.17333 2.55,-0.52c0.56667,-0.34667 1.01,-0.92333 1.33,-1.73v0l0.7,-1.85l-7.89,-22.6zM135.52,269.53167v0c0,-1.18 -0.41667,-2.08667 -1.25,-2.72c-0.83333,-0.63333 -2.33333,-1.3 -4.5,-2c-2.16667,-0.7 -3.88333,-1.39 -5.15,-2.07v0c-3.44,-1.86 -5.16,-4.36667 -5.16,-7.52v0c0,-1.64 0.46,-3.10333 1.38,-4.39c0.92667,-1.28667 2.25333,-2.29 3.98,-3.01c1.73333,-0.72 3.67333,-1.08 5.82,-1.08v0c2.16667,0 4.1,0.39 5.8,1.17c1.69333,0.78667 3.00667,1.89667 3.94,3.33c0.94,1.42667 1.41,3.05 1.41,4.87v0h-6.25c0,-1.38667 -0.43667,-2.46667 -1.31,-3.24c-0.87333,-0.76667 -2.10333,-1.15 -3.69,-1.15v0c-1.52667,0 -2.71333,0.32 -3.56,0.96c-0.84667,0.64667 -1.27,1.5 -1.27,2.56v0c0,0.98667 0.49667,1.81333 1.49,2.48c0.99333,0.66667 2.45333,1.29 4.38,1.87v0c3.56,1.07333 6.15,2.4 7.77,3.98c1.62667,1.58667 2.44,3.56 2.44,5.92v0c0,2.62 -0.99333,4.67667 -2.98,6.17c-1.98667,1.49333 -4.66,2.24 -8.02,2.24v0c-2.33333,0 -4.45667,-0.42667 -6.37,-1.28c-1.92,-0.85333 -3.38333,-2.02333 -4.39,-3.51c-1.00667,-1.48667 -1.51,-3.20667 -1.51,-5.16v0h6.27c0,3.34667 2,5.02 6,5.02v0c1.48667,0 2.64667,-0.30333 3.48,-0.91c0.83333,-0.60667 1.25,-1.45 1.25,-2.53zM170.89,261.65167v1.36c0,2.83333 -0.45667,5.29333 -1.37,7.38c-0.92,2.09333 -2.19,3.77 -3.81,5.03v0l5.04,3.96l-3.98,3.52l-6.46,-5.18c-0.73333,0.12 -1.49667,0.18 -2.29,0.18v0c-2.51333,0 -4.75667,-0.60333 -6.73,-1.81c-1.97333,-1.20667 -3.5,-2.93333 -4.58,-5.18c-1.08667,-2.24 -1.63667,-4.82 -1.65,-7.74v0v-1.5c0,-2.98 0.54,-5.60667 1.62,-7.88c1.07333,-2.27333 2.59333,-4.01667 4.56,-5.23c1.96667,-1.21333 4.21333,-1.82 6.74,-1.82c2.52667,0 4.77333,0.60667 6.74,1.82c1.96667,1.21333 3.48667,2.95667 4.56,5.23c1.07333,2.27333 1.61,4.89333 1.61,7.86zM164.56,263.11167v-1.48c0,-3.18 -0.57,-5.59667 -1.71,-7.25c-1.14,-1.65333 -2.76333,-2.48 -4.87,-2.48v0c-2.1,0 -3.72,0.81667 -4.86,2.45c-1.13333,1.63333 -1.71,4.02667 -1.73,7.18v0v1.48c0,3.09333 0.57,5.49667 1.71,7.21c1.14,1.70667 2.78,2.56 4.92,2.56v0c2.1,0 3.71,-0.82333 4.83,-2.47c1.12667,-1.64667 1.69667,-4.04667 1.71,-7.2zM181.73,247.15167v25.32h13.27v5.02h-19.52v-30.34z"></path></g></g></g></svg>