<svg xmlns="http://www.w3.org/2000/svg" xmlns:xlink="http://www.w3.org/1999/xlink" viewBox="0,0,256,256" width="100px" height="100px" fill-rule="nonzero"><g transform="translate(7.68,7.68) scale(0.94,0.94)"><g fill="#ffffff" fill-rule="nonzero" stroke="none" stroke-width="1" stroke-linecap="butt" stroke-linejoin="miter" stroke-miterlimit="10" stroke-dasharray="" stroke-dashoffset="0" font-family="none" font-weight="none" font-size="none" text-anchor="none" style="mix-blend-mode: normal"><g transform="translate(0.00002,-15.3598) scale(5.12,5.12)"><path d="M24.96094,2c-0.12147,-0.00364 -0.24259,0.01489 -0.35742,0.05469l-20.93164,7.28516c-0.44485,0.15475 -0.72144,0.59892 -0.66406,1.06641l3.30664,27.12305c0.03919,0.32113 0.2313,0.60347 0.51563,0.75781l17.64648,9.5918c0.29915,0.16265 0.6605,0.16191 0.95898,-0.00195l17.73828,-9.72266c0.28231,-0.15488 0.47278,-0.43622 0.51172,-0.75586l3.30664,-27.12109c0.05763,-0.46978 -0.22195,-0.91562 -0.66992,-1.06836l-21.06836,-7.15625c-0.09448,-0.03209 -0.19323,-0.04987 -0.29297,-0.05273zM24.9375,4.05859l19.9707,6.7832l-3.14648,25.80664l-16.80859,9.21289l-16.71484,-9.08594l-3.14844,-25.81055zM25.03516,6c-0.40142,-0.01382 -0.77217,0.21386 -0.94141,0.57813l-13,28c-0.14401,0.30963 -0.12009,0.67134 0.06345,0.9593c0.18354,0.28797 0.50132,0.46238 0.8428,0.46257h4.4375c0.38877,-0.00018 0.74221,-0.22565 0.90625,-0.57812l2.51367,-5.41406h10.28516l2.51367,5.41406c0.16404,0.35247 0.51748,0.57794 0.90625,0.57813h4.4375c0.34148,-0.00019 0.65926,-0.17461 0.8428,-0.46257c0.18354,-0.28797 0.20746,-0.64967 0.06345,-0.9593l-13,-28c-0.1585,-0.34122 -0.4951,-0.56461 -0.87109,-0.57812zM25,9.37305l11.43359,24.62695h-2.23242l-2.51367,-5.41406c-0.16404,-0.35247 -0.51748,-0.57794 -0.90625,-0.57813h-11.5625c-0.38877,0.00018 -0.74221,0.22565 -0.90625,0.57813l-2.51562,5.41406h-2.23047zM25.03906,15.5c-0.40444,-0.01554 -0.77837,0.21422 -0.94727,0.58203l-3.92578,8.51172c-0.14237,0.30958 -0.11733,0.67034 0.06645,0.95727c0.18378,0.28693 0.50101,0.46056 0.84175,0.4607h7.85156c0.34074,-0.00014 0.65797,-0.17376 0.84175,-0.4607c0.18378,-0.28693 0.20882,-0.6477 0.06645,-0.95727l-3.92578,-8.51172c-0.15708,-0.34213 -0.49297,-0.56707 -0.86914,-0.58203zM25,18.88672l2.36328,5.125h-4.72656z"></path></g></g><g fill="#ffffff" fill-rule="nonzero" stroke="none" stroke-width="1" stroke-linecap="butt" stroke-linejoin="miter" stroke-miterlimit="10" stroke-dasharray="" stroke-dashoffset="0" font-family="none" font-weight="none" font-size="none" text-anchor="none" style="mix-blend-mode: normal"><g><path d="M90.07,248.965l-1.51,-4.5h-7.89l-1.5,4.5h-4.79l8.13,-21.84h4.17l8.18,21.84zM84.6,232.645l-2.72,8.17h5.46zM95.8,232.735h4.08l0.14,1.88c1.16,-1.45333 2.71667,-2.18 4.67,-2.18v0c1.71333,0 2.99,0.50667 3.83,1.52c0.84,1.00667 1.27,2.51333 1.29,4.52v0v10.49h-4.33v-10.38c0,-0.92 -0.2,-1.58667 -0.6,-2c-0.4,-0.42 -1.06667,-0.63 -2,-0.63v0c-1.22,0 -2.13333,0.52 -2.74,1.56v0v11.45h-4.34zM112.47,240.905v-0.18c0,-2.48667 0.59333,-4.49 1.78,-6.01c1.18667,-1.52 2.78333,-2.28 4.79,-2.28v0c1.78,0 3.16333,0.61 4.15,1.83v0l0.18,-1.53h3.93v15.69c0,1.42 -0.32,2.65333 -0.96,3.7c-0.64667,1.05333 -1.55333,1.85333 -2.72,2.4c-1.17333,0.55333 -2.54333,0.83 -4.11,0.83v0c-1.19333,0 -2.35333,-0.23667 -3.48,-0.71c-1.13333,-0.47333 -1.99,-1.08667 -2.57,-1.84v0l1.92,-2.64c1.08,1.20667 2.39,1.81 3.93,1.81v0c1.15333,0 2.05,-0.30667 2.69,-0.92c0.63333,-0.61333 0.95,-1.48333 0.95,-2.61v0v-0.88c-1,1.13333 -2.31333,1.7 -3.94,1.7v0c-1.95333,0 -3.53,-0.76333 -4.73,-2.29c-1.20667,-1.52 -1.81,-3.54333 -1.81,-6.07zM116.8,241.045v0c0,1.46667 0.29667,2.62 0.89,3.46c0.59333,0.83333 1.40333,1.25 2.43,1.25v0c1.32,0 2.26333,-0.49667 2.83,-1.49v0v-6.82c-0.58,-0.99333 -1.51333,-1.49 -2.8,-1.49v0c-1.04,0 -1.85667,0.42667 -2.45,1.28c-0.6,0.85333 -0.9,2.12333 -0.9,3.81zM140.47,248.965l-0.11,-1.65c-1.07333,1.3 -2.55667,1.95 -4.45,1.95v0c-1.74,0 -3.06667,-0.5 -3.98,-1.5c-0.91333,-1 -1.38,-2.46333 -1.4,-4.39v0v-10.64h4.33v10.48c0,1.69333 0.77,2.54 2.31,2.54v0c1.47333,0 2.48333,-0.51 3.03,-1.53v0v-11.49h4.35v16.23zM152.4,225.925v23.04h-4.35v-23.04zM169.75,248.965h-4.38c-0.2,-0.39333 -0.34333,-0.87667 -0.43,-1.45v0c-1.05333,1.16667 -2.42,1.75 -4.1,1.75v0c-1.58667,0 -2.90333,-0.46 -3.95,-1.38c-1.04667,-0.92 -1.57,-2.08 -1.57,-3.48v0c0,-1.72 0.64,-3.04 1.92,-3.96c1.27333,-0.92 3.11333,-1.38667 5.52,-1.4v0h2v-0.92c0,-0.75333 -0.19333,-1.35667 -0.58,-1.81c-0.38667,-0.44667 -0.99333,-0.67 -1.82,-0.67v0c-0.73333,0 -1.30667,0.17333 -1.72,0.52c-0.41333,0.35333 -0.62,0.83333 -0.62,1.44v0h-4.34c0,-0.94 0.29,-1.81 0.87,-2.61c0.58,-0.8 1.4,-1.42667 2.46,-1.88c1.06,-0.45333 2.25,-0.68 3.57,-0.68v0c2,0 3.59,0.50333 4.77,1.51c1.17333,1 1.76,2.41 1.76,4.23v0v7.04c0.00667,1.54 0.22,2.70333 0.64,3.49v0zM161.79,245.945v0c0.64,0 1.23,-0.14 1.77,-0.42c0.54,-0.28667 0.94,-0.67 1.2,-1.15v0v-2.79h-1.62c-2.17333,0 -3.33,0.75 -3.47,2.25v0l-0.01,0.25c0,0.54667 0.19,0.99333 0.57,1.34c0.38,0.34667 0.9,0.52 1.56,0.52zM181.62,232.625l-0.06,4.17c-0.59333,-0.08 -1.11333,-0.12 -1.56,-0.12v0c-1.64,0 -2.71667,0.55667 -3.23,1.67v0v10.62h-4.33v-16.23h4.09l0.12,1.93c0.87333,-1.48667 2.08,-2.23 3.62,-2.23v0c0.48,0 0.93,0.06333 1.35,0.19z"></path></g></g></g></svg>