<svg xmlns="http://www.w3.org/2000/svg" xmlns:xlink="http://www.w3.org/1999/xlink" viewBox="0,0,256,256" width="100px" height="100px" fill-rule="nonzero"><g fill="#ffffff" fill-rule="nonzero" stroke="none" stroke-width="1" stroke-linecap="butt" stroke-linejoin="miter" stroke-miterlimit="10" stroke-dasharray="" stroke-dashoffset="0" font-family="none" font-weight="none" font-size="none" text-anchor="none" style="mix-blend-mode: normal"><g transform="translate(0,-24) scale(8,8)"><path d="M16,3c-7.168,0 -13,5.832 -13,13c0,7.168 5.832,13 13,13c7.168,0 13,-5.832 13,-13c0,-7.168 -5.832,-13 -13,-13zM16,5c6.065,0 11,4.935 11,11c0,6.065 -4.935,11 -11,11c-6.065,0 -11,-4.935 -11,-11c0,-6.065 4.935,-11 11,-11zM20.27148,10.07617c-0.073,0.002 -2.51331,-0.13455 -3.94531,4.06445c-0.388,-0.319 -2.22577,-2.51014 -4.25977,-0.99414c-0.73,0.546 -1.21223,1.84731 -0.11523,3.07031c0.653,0.699 1.02942,0.97616 0.85742,1.53516c-0.353,1.148 -2.14084,0.62173 -1.96484,0.05273c0.052,-0.17 0.13519,-0.17291 0.24219,-0.50391c0.298,-0.976 -1.04499,-1.45344 -1.33398,-0.52344c-0.166,0.542 0.09152,1.52122 1.47852,1.94922c1.624,0.499 2.99836,-0.38606 3.19336,-1.53906c0.124,-0.722 -0.20278,-1.25822 -0.80078,-1.94922l-0.48633,-0.53906c-0.295,-0.297 -0.3968,-0.79859 -0.0918,-1.18359c0.257,-0.326 0.62361,-0.46378 1.22461,-0.30078c0.877,0.238 1.26792,0.84689 1.91992,1.33789c-0.047,0.154 -0.38517,1.2452 -0.70117,3.1582c-0.466,2.446 -0.82305,3.78859 -1.74805,4.55859c-0.186,0.135 -0.45251,0.33366 -0.85351,0.34766c-0.075,0.003 -0.54412,-0.10842 -0.07812,-0.48242c0.587,-0.321 0.26878,-1.33955 -0.57422,-1.31055c-0.38,0.012 -0.95755,0.36844 -0.93555,1.02344c0.022,0.676 0.65156,1.18339 1.60156,1.15039c0.508,-0.017 1.64081,-0.22278 2.75781,-1.55078c1.535,-1.8 1.82719,-3.93747 2.24219,-6.23047c1.991,0.236 2.97623,-0.687 2.99023,-1.375c0.021,-0.936 -1.08038,-0.90312 -1.23437,-0.20312c-0.074,0.34 0.51864,0.64631 0.05664,0.94531c-0.327,0.212 -0.91423,0.36124 -1.74023,0.24024c0.397,-2.19 0.73653,-4.33672 2.26953,-4.38672c0.105,-0.006 0.48709,0.00581 0.49609,0.25781c0.005,0.208 -0.26195,0.37256 -0.25195,0.72656c0.015,0.402 0.31972,0.66444 0.76172,0.64844c0.591,-0.021 0.76,-0.59462 0.75,-0.89062c-0.025,-0.696 -0.75756,-1.13452 -1.72656,-1.10352z"></path></g></g><g fill="#ffffff" fill-rule="nonzero" stroke="none" stroke-width="1" stroke-linecap="butt" stroke-linejoin="miter" stroke-miterlimit="10" stroke-dasharray="" stroke-dashoffset="0" font-family="none" font-weight="none" font-size="none" text-anchor="none" style="mix-blend-mode: normal"><g><path d="M89.445,243.065v0c0,-0.41333 -0.20667,-0.74 -0.62,-0.98c-0.40667,-0.24 -1.06333,-0.45333 -1.97,-0.64v0c-3.02,-0.63333 -4.53,-1.91333 -4.53,-3.84v0c0,-1.12667 0.47,-2.06667 1.41,-2.82c0.93333,-0.75333 2.15333,-1.13 3.66,-1.13v0c1.60667,0 2.89333,0.37667 3.86,1.13c0.96667,0.76 1.45,1.74667 1.45,2.96v0h-3.39c0,-0.48667 -0.15667,-0.89 -0.47,-1.21c-0.31333,-0.31333 -0.8,-0.47 -1.46,-0.47v0c-0.57333,0 -1.01667,0.13 -1.33,0.39c-0.31333,0.25333 -0.47,0.58 -0.47,0.98v0c0,0.37333 0.18,0.67667 0.54,0.91c0.35333,0.23333 0.95,0.43333 1.79,0.6c0.84667,0.16667 1.56,0.35667 2.14,0.57v0c1.78667,0.65333 2.68,1.79 2.68,3.41v0c0,1.15333 -0.49667,2.08667 -1.49,2.8c-0.99333,0.71333 -2.27333,1.07 -3.84,1.07v0c-1.06,0 -2.00333,-0.18667 -2.83,-0.56c-0.82667,-0.38 -1.47333,-0.9 -1.94,-1.56c-0.46667,-0.66 -0.7,-1.37333 -0.7,-2.14v0h3.21c0.02667,0.6 0.25,1.06 0.67,1.38c0.41333,0.32 0.96667,0.48 1.66,0.48v0c0.64667,0 1.13667,-0.12333 1.47,-0.37c0.33333,-0.24667 0.5,-0.56667 0.5,-0.96zM97.295,233.885l2.36,7.89l2.34,-7.89h3.63l-5.1,14.65l-0.28,0.67c-0.75333,1.65333 -2.00333,2.48 -3.75,2.48v0c-0.49333,0 -0.99333,-0.07333 -1.5,-0.22v0v-2.57l0.52,0.01c0.64,0 1.11667,-0.09667 1.43,-0.29c0.32,-0.19333 0.57,-0.51667 0.75,-0.97v0l0.4,-1.04l-4.44,-12.72zM106.965,233.885h3.17l0.11,1.42c0.9,-1.1 2.11333,-1.65 3.64,-1.65v0c1.63333,0 2.75667,0.64333 3.37,1.93v0c0.88667,-1.28667 2.15667,-1.93 3.81,-1.93v0c1.37333,0 2.39667,0.4 3.07,1.2c0.66667,0.8 1,2.00333 1,3.61v0v8.1h-3.4v-8.09c0,-0.71333 -0.14,-1.23667 -0.42,-1.57c-0.28,-0.33333 -0.77667,-0.5 -1.49,-0.5v0c-1.01333,0 -1.71333,0.48333 -2.1,1.45v0l0.01,8.71h-3.39v-8.07c0,-0.74 -0.14333,-1.27333 -0.43,-1.6c-0.29333,-0.32667 -0.78667,-0.49 -1.48,-0.49v0c-0.96,0 -1.65667,0.4 -2.09,1.2v0v8.96h-3.38zM132.065,246.565h-3.4v-10.2h-1.89v-2.48h1.89v-1.08c0,-1.42 0.41,-2.52333 1.23,-3.31c0.81333,-0.78667 1.95333,-1.18 3.42,-1.18v0c0.47333,0 1.05,0.08 1.73,0.24v0l-0.04,2.62c-0.28,-0.06667 -0.62333,-0.1 -1.03,-0.1v0c-1.27333,0 -1.91,0.59667 -1.91,1.79v0v1.02h2.52v2.48h-2.52zM135.815,240.265v-0.16c0,-1.25333 0.24333,-2.37333 0.73,-3.36c0.48,-0.98667 1.17667,-1.75 2.09,-2.29c0.90667,-0.53333 1.96333,-0.8 3.17,-0.8v0c1.70667,0 3.10333,0.52333 4.19,1.57c1.08,1.04667 1.68333,2.46667 1.81,4.26v0l0.02,0.87c0,1.94667 -0.54333,3.50667 -1.63,4.68c-1.08667,1.17333 -2.54333,1.76 -4.37,1.76c-1.82667,0 -3.28667,-0.58333 -4.38,-1.75c-1.08667,-1.17333 -1.63,-2.76667 -1.63,-4.78zM139.205,240.355v0c0,1.2 0.22667,2.12 0.68,2.76c0.45333,0.63333 1.1,0.95 1.94,0.95v0c0.82,0 1.46,-0.31333 1.92,-0.94c0.46,-0.62667 0.69,-1.63333 0.69,-3.02v0c0,-1.18 -0.23,-2.09333 -0.69,-2.74c-0.46,-0.64667 -1.10667,-0.97 -1.94,-0.97v0c-0.82667,0 -1.46667,0.32 -1.92,0.96c-0.45333,0.64667 -0.68,1.64667 -0.68,3zM149.845,233.885h3.18l0.11,1.47c0.90667,-1.13333 2.12,-1.7 3.64,-1.7v0c1.34667,0 2.34667,0.39333 3,1.18c0.66,0.78667 0.99667,1.96667 1.01,3.54v0v8.19h-3.38v-8.11c0,-0.72 -0.15667,-1.24 -0.47,-1.56c-0.31333,-0.32667 -0.83333,-0.49 -1.56,-0.49v0c-0.95333,0 -1.67,0.40667 -2.15,1.22v0v8.94h-3.38zM165.735,233.885l2.35,7.89l2.35,-7.89h3.63l-5.1,14.65l-0.28,0.67c-0.76,1.65333 -2.01,2.48 -3.75,2.48v0c-0.49333,0 -0.99333,-0.07333 -1.5,-0.22v0v-2.57l0.52,0.01c0.64,0 1.11667,-0.09667 1.43,-0.29c0.32,-0.19333 0.57,-0.51667 0.75,-0.97v0l0.39,-1.04l-4.44,-12.72z"></path></g></g></svg>